<?xml version="1.0" encoding="UTF-8"?>
<svg version="1.1" xmlns="http://www.w3.org/2000/svg" width="500" height="500">
<path d="M0 0 C1.60142349 0.09454971 1.60142349 0.09454971 3.23519897 0.19100952 C13.34019606 0.80422806 23.42634386 1.53615051 33.4921875 2.625 C34.19678101 2.70044037 34.90137451 2.77588074 35.62731934 2.85360718 C53.71505133 4.93734762 69.37840296 12.30870338 83.5 23.625 C84.46292969 24.35976562 84.46292969 24.35976562 85.4453125 25.109375 C103.26039381 39.32948474 112.1485235 62.90275883 114.76980591 84.88790894 C115.26244222 89.77905163 115.62177165 94.67860164 115.953125 99.58300781 C116.12298567 102.09520847 116.30629235 104.6061276 116.4921875 107.1171875 C118.09194694 129.19419008 118.73434254 151.24190738 118.75 173.375 C118.75167175 174.63860352 118.75334351 175.90220703 118.75506592 177.20410156 C118.75651534 195.71499315 118.25674358 214.14864424 117.125 232.625 C117.06187622 233.66120483 116.99875244 234.69740967 116.93371582 235.76501465 C116.30138103 245.88763741 115.52955657 255.99402384 114.515625 266.0859375 C114.44227936 266.84003906 114.36893372 267.59414063 114.29336548 268.37109375 C113.20558386 278.59938894 110.2425182 288.48774827 105.5 297.625 C105.03078125 298.53507812 104.5615625 299.44515625 104.078125 300.3828125 C92.55856615 321.39229364 74.35006893 336.00831036 51.62890625 343.58203125 C39.423726 346.93311082 26.56610398 347.35290605 14 348.1875 C13.04814819 348.25192291 12.09629639 348.31634583 11.11560059 348.38272095 C-34.59611292 351.46360896 -80.30096925 351.44516154 -126.01818848 348.43765259 C-127.8900051 348.3147004 -129.76199186 348.19430548 -131.63415527 348.07675171 C-161.00530647 346.20657261 -186.86613399 339.78572968 -207.5 317.625 C-212.85867126 311.53748319 -217.08351239 304.98571299 -220.8125 297.8125 C-221.28296753 296.92643066 -221.28296753 296.92643066 -221.76293945 296.02246094 C-227.18784352 285.00144695 -229.10331643 272.73693311 -230.125 260.625 C-230.2117247 259.64459244 -230.2117247 259.64459244 -230.30020142 258.64437866 C-230.74234382 253.64089087 -231.13021978 248.63429867 -231.5 243.625 C-231.5799118 242.56759613 -231.5799118 242.56759613 -231.66143799 241.48883057 C-234.78538448 199.79353713 -234.59859247 157.71876988 -232.125 116 C-232.06196686 114.93592926 -231.99893372 113.87185852 -231.93399048 112.77554321 C-231.32206247 102.73257479 -230.58938926 92.70545508 -229.52734375 82.69921875 C-229.45556915 82.001987 -229.38379456 81.30475525 -229.30984497 80.58639526 C-226.73616575 57.90888217 -215.38084351 37.63260667 -198.1875 22.8125 C-176.3081106 5.85052671 -152.29575766 2.38727227 -125.5 0.625 C-123.54006104 0.48747314 -123.54006104 0.48747314 -121.54052734 0.34716797 C-81.10603391 -2.45566409 -40.45076829 -2.3914198 0 0 Z " fill="#000000" transform="translate(307.5,75.375)"/>
<path d="M0 0 C2.32815063 3.49222595 2.44949245 4.89178754 2 9 C0.61119652 11.14385033 0.61119652 11.14385033 -1.37637329 13.13827515 C-2.1249762 13.903797 -2.8735791 14.66931885 -3.64486694 15.45803833 C-4.47700714 16.27803314 -5.30914734 17.09802795 -6.16650391 17.94287109 C-7.0346875 18.8215686 -7.90287109 19.70026611 -8.79736328 20.60559082 C-11.17920681 23.00931429 -13.57377298 25.3987582 -15.97602892 27.78198195 C-18.48865252 30.27940451 -20.98659197 32.79144516 -23.48690796 35.30117798 C-27.68805515 39.5132381 -31.90168819 43.71249626 -36.12255859 47.90478516 C-41.00084762 52.75042098 -45.85714403 57.6172946 -50.70258009 62.49576509 C-54.86486373 66.68528511 -59.0387372 70.86298819 -63.22250307 75.03105605 C-65.72060513 77.5198085 -68.21448726 80.01242619 -70.6979866 82.51575851 C-73.4673328 85.30567027 -76.26079535 88.07062162 -79.05712891 90.83349609 C-79.87712372 91.66563629 -80.69711853 92.49777649 -81.54196167 93.35513306 C-82.30748352 94.10373596 -83.07300537 94.85233887 -83.86172485 95.62362671 C-84.51988504 96.27952475 -85.17804523 96.93542278 -85.85614967 97.61119652 C-88.71702217 99.46449273 -90.6557289 99.34721812 -94 99 C-96.16415405 97.5977478 -96.16415405 97.5977478 -98.16943359 95.60693359 C-98.92976898 94.86551117 -99.69010437 94.12408875 -100.47348022 93.36019897 C-101.27371613 92.54781769 -102.07395203 91.7354364 -102.8984375 90.8984375 C-104.15087753 89.654608 -104.15087753 89.654608 -105.42861938 88.38565063 C-107.18913046 86.62922078 -108.94209394 84.86519792 -110.68798828 83.09423828 C-113.36515815 80.38495988 -116.07278405 77.70913886 -118.78515625 75.03515625 C-120.49151047 73.32483717 -122.1960025 71.61265778 -123.8984375 69.8984375 C-124.71081879 69.0982016 -125.52320007 68.2979657 -126.36019897 67.47348022 C-127.1016214 66.71314484 -127.84304382 65.95280945 -128.60693359 65.16943359 C-129.26390228 64.50769135 -129.92087097 63.8459491 -130.5977478 63.16415405 C-132.4541491 60.29909283 -132.32653034 58.34957505 -132 55 C-130.9375 53.125 -130.9375 53.125 -129 52 C-125.64503023 51.49120902 -123.14365732 51.25007875 -120.21731567 53.16894531 C-118.29993283 54.88986807 -116.52345676 56.68984725 -114.75390625 58.5625 C-114.09792953 59.22838135 -113.44195282 59.8942627 -112.76609802 60.58032227 C-110.6811901 62.70431628 -108.62197174 64.85136219 -106.5625 67 C-105.15071718 68.4469034 -103.73732241 69.89223584 -102.32226562 71.3359375 C-98.86256315 74.87268916 -95.42569684 78.43031313 -92 82 C-88.94583029 80.63567598 -86.84926376 79.0957171 -84.49533081 76.72911072 C-83.81959015 76.05467422 -83.14384949 75.38023773 -82.44763184 74.68536377 C-81.71709595 73.94606628 -80.98656006 73.2067688 -80.23388672 72.44506836 C-79.06740097 71.27661125 -79.06740097 71.27661125 -77.87734985 70.08454895 C-75.30683787 67.50754338 -72.7433692 64.92364282 -70.1796875 62.33984375 C-68.39708425 60.55097138 -66.61396573 58.76261234 -64.83035278 56.9747467 C-60.61484481 52.74728899 -56.40346457 48.51576591 -52.19439995 44.28189617 C-44.20521271 36.24571286 -36.20890026 28.21664161 -28.20856094 20.19156075 C-25.57707686 17.54982038 -22.94901351 14.9047112 -20.32125854 12.25926208 C-18.71672811 10.64790656 -17.11208929 9.03665895 -15.50732422 7.42553711 C-14.77273987 6.68421539 -14.03815552 5.94289368 -13.28131104 5.17910767 C-12.27615952 4.17168266 -12.27615952 4.17168266 -11.2507019 3.14390564 C-10.66779325 2.55747756 -10.08488461 1.97104948 -9.48431206 1.36685085 C-6.28854205 -1.57602153 -4.07413488 -1.01853372 0 0 Z " fill="#FDFDFD" transform="translate(289,204)"/>
<path d="M0 0 C2.32860064 3.49290096 2.4507014 4.8908845 2 9 C0.5977478 11.16415405 0.5977478 11.16415405 -1.39306641 13.16943359 C-2.13448883 13.92976898 -2.87591125 14.69010437 -3.63980103 15.47348022 C-4.45218231 16.27371613 -5.2645636 17.07395203 -6.1015625 17.8984375 C-6.93078217 18.73339752 -7.76000183 19.56835754 -8.61434937 20.42861938 C-10.37077922 22.18913046 -12.13480208 23.94209394 -13.90576172 25.68798828 C-16.61504012 28.36515815 -19.29086114 31.07278405 -21.96484375 33.78515625 C-23.67516283 35.49151047 -25.38734222 37.1960025 -27.1015625 38.8984375 C-27.9017984 39.71081879 -28.7020343 40.52320007 -29.52651978 41.36019897 C-30.28685516 42.1016214 -31.04719055 42.84304382 -31.83056641 43.60693359 C-32.49230865 44.26390228 -33.1540509 44.92087097 -33.83584595 45.5977478 C-36.70090717 47.4541491 -38.65042495 47.32653034 -42 47 C-43.875 45.9375 -43.875 45.9375 -45 44 C-45.57177734 40.92529297 -45.57177734 40.92529297 -45 37 C-42.70447237 33.70610096 -39.86726626 31.02975746 -36.9765625 28.2578125 C-35.75179703 27.04434647 -35.75179703 27.04434647 -34.50228882 25.80636597 C-31.8924861 23.22908183 -29.25910329 20.67741822 -26.625 18.125 C-24.85783488 16.38437472 -23.09219063 14.64220393 -21.328125 12.8984375 C-18.10212836 9.7227623 -14.87350426 6.55008019 -11.62353516 3.39892578 C-10.97067535 2.7649588 -10.31781555 2.13099182 -9.64517212 1.47781372 C-6.32618846 -1.50353974 -4.22587315 -1.05646829 0 0 Z " fill="#FCFCFC" transform="translate(341,204)"/>
<path d="M0 0 C2.796875 0.44140625 2.796875 0.44140625 5.171875 2.12890625 C7.1625349 4.96176842 7.27493722 6.03808812 6.796875 9.44140625 C4.26527855 12.88870806 1.20254318 15.79565696 -1.84570312 18.79077148 C-3.32201929 20.24787998 -4.76667778 21.73189484 -6.2109375 23.22070312 C-7.1390625 24.14560547 -8.0671875 25.07050781 -9.0234375 26.0234375 C-9.87180176 26.87139893 -10.72016602 27.71936035 -11.59423828 28.59301758 C-14.79864304 30.86332905 -16.3536055 31.07102453 -20.203125 30.44140625 C-23.4264442 28.40587615 -25.92385416 25.60277371 -28.578125 22.87890625 C-29.31417969 22.17443359 -30.05023438 21.46996094 -30.80859375 20.74414062 C-34.24459489 17.28582779 -36.05156079 15.46446467 -36.78125 10.5390625 C-36.203125 7.44140625 -36.203125 7.44140625 -34.578125 5.44140625 C-31.11676153 3.98399005 -29.76972937 4.13822388 -26.203125 5.44140625 C-23.31985661 7.91872711 -20.74047098 10.61426187 -18.203125 13.44140625 C-13.56977203 11.63592129 -10.65946118 7.88571266 -7.4453125 4.25390625 C-4.97674372 1.63278547 -3.61563416 0.49825202 0 0 Z " fill="#FBFBFB" transform="translate(267.203125,272.55859375)"/>
</svg>
